HIERARCHY
ROOT Hips
{
	OFFSET 0.00000 0.00000 0.00000
	CHANNELS 6 Xposition Yposition Zposition Zrotation Yrotation Xrotation 
	JOINT LHipJoint
	{
		OFFSET 0 0 0
		CHANNELS 3 Zrotation Yrotation Xrotation
		JOINT LeftUpLeg
		{
			OFFSET 1.57358 -1.76629 0.73362
			CHANNELS 3 Zrotation Yrotation Xrotation
			JOINT LeftLeg
			{
				OFFSET 2.40600 -6.61045 0.00000
				CHANNELS 3 Zrotation Yrotation Xrotation
				JOINT LeftFoot
				{
					OFFSET 2.66168 -7.31291 0.00000
					CHANNELS 3 Zrotation Yrotation Xrotation
					JOINT LeftToeBase
					{
						OFFSET 0.20870 -0.57341 2.12506
						CHANNELS 3 Zrotation Yrotation Xrotation
						End Site
						{
							OFFSET 0.00000 -0.00000 1.10557
						}
					}
				}
			}
		}
	}
	JOINT RHipJoint
	{
		OFFSET 0 0 0
		CHANNELS 3 Zrotation Yrotation Xrotation
		JOINT RightUpLeg
		{
			OFFSET -1.49299 -1.76629 0.73362
			CHANNELS 3 Zrotation Yrotation Xrotation
			JOINT RightLeg
			{
				OFFSET -2.43663 -6.69460 0.00000
				CHANNELS 3 Zrotation Yrotation Xrotation
				JOINT RightFoot
				{
					OFFSET -2.62959 -7.22474 0.00000
					CHANNELS 3 Zrotation Yrotation Xrotation
					JOINT RightToeBase
					{
						OFFSET -0.25784 -0.70841 2.21862
						CHANNELS 3 Zrotation Yrotation Xrotation
						End Site
						{
							OFFSET -0.00000 -0.00000 1.16452
						}
					}
				}
			}
		}
	}
	JOINT LowerBack
	{
		OFFSET 0 0 0
		CHANNELS 3 Zrotation Yrotation Xrotation
		JOINT Spine
		{
			OFFSET -0.00034 2.12399 -0.25450
			CHANNELS 3 Zrotation Yrotation Xrotation
			JOINT Spine1
			{
				OFFSET 0.05594 2.14379 -0.03318
				CHANNELS 3 Zrotation Yrotation Xrotation
				JOINT Neck
				{
					OFFSET 0 0 0
					CHANNELS 3 Zrotation Yrotation Xrotation
					JOINT Neck1
					{
						OFFSET -0.09835 1.62725 0.24211
						CHANNELS 3 Zrotation Yrotation Xrotation
						JOINT Head
						{
							OFFSET 0.10849 1.66041 -0.22648
							CHANNELS 3 Zrotation Yrotation Xrotation
							End Site
							{
								OFFSET 0.04385 1.68267 -0.10541
							}
						}
					}
				}
				JOINT LeftShoulder
				{
					OFFSET 0 0 0
					CHANNELS 3 Zrotation Yrotation Xrotation
					JOINT LeftArm
					{
						OFFSET 3.29108 0.79398 -0.68179
						CHANNELS 3 Zrotation Yrotation Xrotation
						JOINT LeftForeArm
						{
							OFFSET 5.15310 -0.00000 -0.00000
							CHANNELS 3 Zrotation Yrotation Xrotation
							JOINT LeftHand
							{
								OFFSET 3.75138 -0.00000 -0.00000
								CHANNELS 3 Zrotation Yrotation Xrotation
								JOINT LeftFingerBase
								{
									OFFSET 0 0 0
									CHANNELS 3 Zrotation Yrotation Xrotation
									JOINT LeftHandIndex1
									{
										OFFSET 0.52917 -0.00000 0.00000
										CHANNELS 3 Zrotation Yrotation Xrotation
										End Site
										{
											OFFSET 0.42663 -0.00000 0.00000
										}
									}
								}
								JOINT LThumb
								{
									OFFSET 0 0 0
									CHANNELS 3 Zrotation Yrotation Xrotation
									End Site
									{
										OFFSET 0.43315 -0.00000 0.43315
									}
								}
							}
						}
					}
				}
				JOINT RightShoulder
				{
					OFFSET 0 0 0
					CHANNELS 3 Zrotation Yrotation Xrotation
					JOINT RightArm
					{
						OFFSET -3.07414 1.06285 -0.44338
						CHANNELS 3 Zrotation Yrotation Xrotation
						JOINT RightForeArm
						{
							OFFSET -5.29613 -0.00000 0.00000
							CHANNELS 3 Zrotation Yrotation Xrotation
							JOINT RightHand
							{
								OFFSET -3.76144 -0.00000 -0.00000
								CHANNELS 3 Zrotation Yrotation Xrotation
								JOINT RightFingerBase
								{
									OFFSET 0 0 0
									CHANNELS 3 Zrotation Yrotation Xrotation
									JOINT RightHandIndex1
									{
										OFFSET -0.74732 -0.00000 0.00000
										CHANNELS 3 Zrotation Yrotation Xrotation
										End Site
										{
											OFFSET -0.60251 -0.00000 0.00000
										}
									}
								}
								JOINT RThumb
								{
									OFFSET 0 0 0
									CHANNELS 3 Zrotation Yrotation Xrotation
									End Site
									{
										OFFSET -0.61171 -0.00000 0.61171
									}
								}
							}
						}
					}
				}
			}
		}
	}
}
MOTION
Frames: 13
Frame Time: 0.153846
0.00 0.00 0.00 0 0 0 0 0 0 -21 0 0 0 0 0 0 0 0 0 0 0 0 0 0 21 0 0 0 0 0 0 0 0 0 0 0 0 0 0 0 0 0 0 0 0 0 0 -16 0 0 21 0 0 11 0 0 0 -8 0 0 0 0 0 0 0 0 0 0 0 0 0 0 0 0 0 0 0 0 8 0 0 0 0 0 0 0 0 0 0 0 0 0 0 0 0 0
0.00 0.00 0.00 3.7262 0.5691 -1.2376 0.0000 0.0000 0.0000 -26.3865 0.0447 12.4310 2.9850 10.6707 31.1772 0.0656 -1.0387 -4.5858 4.1791 -12.3949 -37.1438 0.0000 0.0000 0.0000 15.2343 9.3535 -24.1402 -1.2689 -7.1397 20.1300 -0.1198 -2.4924 6.1516 -0.0101 -0.6484 1.7820 -3.9146 -1.1827 5.6048 2.3815 -1.7542 1.0077 4.7906 -0.8504 -1.9092 -9.2125 -2.3944 -14.5427 4.4108 -2.1141 21.2394 2.7991 -1.2546 9.2339 -0.0000 -0.0000 0.0000 -87.9306 -7.5954 26.6828 20.2147 -30.9001 -5.6412 -0.0000 -0.0000 5.3542 21.4624 17.9617 6.9128 -7.1250 0.0000 -0.0000 -6.4615 49.0764 -0.6520 -0.0000 -0.0000 0.0000 88.9379 -6.0466 -7.1156 -10.0030 16.7443 -1.4758 0.0000 0.0000 21.3000 -17.1983 12.4055 -3.8042 7.1250 -0.0000 -0.0000 6.9707 -17.0728 4.6518
0.00 0.00 0.00 1.6412 1.4892 -2.3801 0.0000 0.0000 0.0000 -22.8536 -0.6395 8.1769 5.1755 13.5787 41.5753 0.4092 2.4422 11.4880 0.1427 -2.4346 -6.7084 0.0000 0.0000 0.0000 18.8775 8.3144 -20.3925 -1.6184 -8.0213 22.7787 -0.0198 -1.1976 2.5102 -0.0003 -0.1074 0.2950 -3.5332 -2.3662 6.4902 4.2432 -3.2759 0.1226 6.7110 -1.5573 -3.0641 -10.8621 -1.5747 -11.6516 3.8033 -0.7841 20.7751 3.0110 -0.8403 8.4609 -0.0000 -0.0000 0.0000 -91.2033 -2.9105 22.4039 19.5474 -30.0932 -5.3025 -0.0000 -0.0000 5.3952 15.8401 28.3649 7.6769 -7.1250 0.0000 -0.0000 -16.6561 58.4986 -5.5978 -0.0000 -0.0000 0.0000 86.3704 -8.4486 -2.1586 -10.3206 17.2395 -1.5686 0.0000 0.0000 20.2852 -18.1820 10.6960 -3.4883 7.1250 -0.0000 -0.0000 6.2708 -18.7732 3.9427
0.00 0.00 0.00 -1.9648 1.9632 -3.4101 0.0000 0.0000 0.0000 -17.9826 -3.9074 -2.4306 9.9275 17.3689 59.2459 1.2033 4.1657 19.7742 0.0831 1.8597 5.1181 0.0000 0.0000 0.0000 24.9475 7.0426 -11.3221 -1.0681 -6.5701 18.4478 0.0367 -3.4283 -0.7463 -0.0028 -0.3393 0.9324 0.2911 -1.5822 6.4301 4.4594 -1.9782 1.3385 4.6133 -0.9838 -2.0741 -9.1707 -2.7172 -13.8876 4.4243 -2.6352 20.7605 2.7290 -1.4922 8.9862 0.0000 0.0000 0.0000 -91.0169 -3.9992 24.8877 15.9021 -25.3877 -3.6039 -0.0000 -0.0000 9.6458 19.1125 27.1915 8.9981 -7.1250 0.0000 -0.0000 -12.4810 58.0757 -4.0343 0.0000 0.0000 0.0000 87.4966 -4.7594 -1.4747 -11.0368 18.3447 -1.7875 0.0000 0.0000 16.6648 -16.3767 17.6928 -5.1037 7.1250 -0.0000 -0.0000 7.6362 -11.7124 5.9817
0.00 0.00 0.00 -2.5664 0.5743 -3.6927 0.0000 0.0000 0.0000 -16.2794 -6.6640 -15.7495 12.3960 18.5531 67.2387 0.0404 0.0072 3.7910 0.2304 -3.0894 -8.5278 0.0000 0.0000 0.0000 27.6758 5.8255 -3.7485 -0.9569 -6.2289 17.4501 -0.0614 -3.6020 -7.3491 -0.0617 1.6024 -4.4081 1.0672 -0.3866 6.6637 3.9739 -0.3461 1.6208 3.5350 -0.1738 -2.0459 -8.9071 -3.4926 -13.8887 5.1640 -3.9510 20.8862 2.7811 -2.0096 9.1350 -0.0000 -0.0000 0.0000 -91.8208 -1.8721 23.5481 12.6425 -20.7612 -2.3250 -0.0000 -0.0000 14.9602 12.7744 27.3151 5.9397 -7.1250 0.0000 -0.0000 -19.1539 56.8405 -5.7018 -0.0000 -0.0000 0.0000 86.6885 -1.0093 7.3600 -13.6124 22.1779 -2.6800 0.0000 0.0000 10.5072 -15.4961 10.5875 -2.9162 7.1250 -0.0000 -0.0000 8.1677 -19.0622 5.1042
0.00 0.00 0.00 -4.6110 -2.4084 -2.2150 0.0000 0.0000 0.0000 -12.9154 -7.7396 -27.8120 7.6817 15.8801 51.4078 0.0824 4.0647 -8.4006 0.1540 -2.5284 -6.9685 0.0000 0.0000 0.0000 31.1090 5.4308 0.8269 -1.3369 -7.3211 20.6702 -0.5249 -1.9408 -14.5269 -0.0051 -0.4595 1.2626 4.2398 0.8177 7.1574 3.5289 1.5311 0.9654 1.1219 0.7299 -3.0030 -9.1579 -3.4611 -14.2214 5.6332 -3.9368 21.3372 2.9914 -1.9721 9.3662 0.0000 0.0000 0.0000 -92.6881 2.7292 19.8474 11.8824 -19.6281 -2.0626 -0.0000 -0.0000 13.9128 13.0052 29.5469 6.4978 -7.1250 0.0000 -0.0000 -20.4379 58.9850 -7.1727 0.0000 0.0000 0.0000 84.3548 4.1455 18.5855 -17.6427 27.6972 -4.3819 0.0000 0.0000 5.2789 -16.0809 11.8265 -3.3812 7.1250 -0.0000 -0.0000 7.7467 -17.7530 5.0623
0.00 0.00 0.00 -5.3166 -2.6188 -0.2508 0.0000 0.0000 0.0000 -11.1754 -11.7740 -28.4842 3.0534 10.7810 31.5447 -0.1069 6.1496 -4.4595 0.0070 -0.5404 -1.4850 0.0000 0.0000 0.0000 31.9418 3.5953 5.6139 -0.8062 -5.7302 16.0034 -0.6398 -1.8016 -15.8676 -0.0011 -0.2148 0.5902 4.6790 1.1432 5.7367 3.6407 1.9131 0.6690 0.9839 0.9213 -2.5003 -9.6959 -3.8218 -14.9229 5.6011 -4.2416 21.7049 3.0286 -2.1539 9.6674 0.0000 0.0000 0.0000 -93.8370 3.7162 16.8930 11.1866 -18.5738 -1.8349 -0.0000 -0.0000 14.5617 13.4391 29.1202 6.6329 -7.1250 0.0000 -0.0000 -19.6795 58.6828 -6.7493 0.0000 0.0000 0.0000 82.7284 7.1582 21.0989 -19.8245 30.4303 -5.4422 0.0000 0.0000 3.3778 -16.8336 12.7333 -3.8153 7.1250 -0.0000 -0.0000 7.2261 -16.7631 4.8741
0.00 0.00 0.00 -0.0368 -3.8682 0.2747 0.0000 0.0000 0.0000 -20.9885 -8.4854 -23.1333 1.7477 8.3195 23.6889 -0.0089 2.2937 0.8347 0.0453 1.3729 3.7756 0.0000 0.0000 0.0000 24.1132 1.8416 7.6645 -3.8438 -11.9495 35.5537 -0.0596 0.1747 -4.5519 -0.6713 5.2396 -14.5931 -0.1455 1.9177 4.5295 1.2809 2.5796 0.1744 1.2275 1.2944 -2.4238 -9.8240 -4.0436 -15.0865 6.3802 -4.7294 22.5328 3.2723 -2.3100 10.0555 -0.0000 -0.0000 0.0000 -93.6997 4.0492 8.9719 9.2015 -15.4809 -1.2534 -0.0000 -0.0000 18.8710 12.7874 26.4054 5.7636 -7.1250 0.0000 -0.0000 -18.5806 55.9817 -5.1317 -0.0000 -0.0000 0.0000 85.2715 5.7872 16.4309 -19.6184 30.1799 -5.3382 0.0000 0.0000 3.4876 -18.0438 12.8079 -4.1305 7.1250 -0.0000 -0.0000 6.3898 -16.5866 4.3271
0.00 0.00 0.00 1.4004 -3.9962 -0.6038 0.0000 0.0000 0.0000 -23.6965 -6.0331 -19.4599 1.6468 8.0881 22.9819 0.0057 0.7979 -1.9473 0.1787 2.7232 7.5090 0.0000 0.0000 0.0000 20.9602 3.0712 0.2164 -7.3342 -15.6070 50.1271 -0.4155 -1.0347 11.8590 -0.1128 2.1658 -5.9642 -1.1034 1.8893 5.1808 0.7548 2.4722 0.6066 1.2168 1.2455 -2.3584 -9.8219 -3.9682 -15.3443 6.0107 -4.5018 22.5112 3.1680 -2.2418 10.0683 -0.0000 0.0000 0.0000 -92.9859 3.1015 10.7410 9.5434 -16.0222 -1.3462 -0.0000 -0.0000 17.0201 12.2254 27.4239 5.6988 -7.1250 0.0000 -0.0000 -19.7810 56.8293 -5.8932 -0.0000 0.0000 0.0000 86.8173 4.8681 13.7023 -18.2173 28.4345 -4.6522 0.0000 0.0000 6.4605 -16.7002 8.4485 -2.5239 7.1250 -0.0000 -0.0000 7.3449 -21.1949 4.2268
0.00 0.00 0.00 3.1906 -3.4881 -2.0050 0.0000 0.0000 0.0000 -27.0387 -4.1234 -12.4985 1.4052 7.4982 21.2001 0.0712 0.2243 -5.1253 0.0910 1.9461 5.3567 0.0000 0.0000 0.0000 16.8735 4.6031 -10.9397 -12.3348 -18.5286 67.0461 -1.0182 -5.2940 18.0381 -0.0413 -1.3110 3.6050 -2.8785 1.3079 5.8970 0.6398 1.5790 1.3029 2.1538 0.8033 -2.0582 -9.7424 -3.3655 -15.4810 4.8362 -3.3595 22.3823 2.8878 -1.8369 9.9277 -0.0000 0.0000 0.0000 -91.5558 1.0676 18.4392 10.8032 -17.9859 -1.7146 -0.0000 -0.0000 14.2729 12.7288 29.1861 6.2860 -7.1250 0.0000 -0.0000 -20.4630 58.5868 -6.9848 -0.0000 0.0000 0.0000 87.3865 4.0167 13.1158 -15.6069 24.9848 -3.4783 0.0000 0.0000 10.7805 -17.7655 8.8017 -2.8067 7.1250 -0.0000 -0.0000 6.5725 -20.7718 3.8393
0.00 0.00 0.00 4.5095 -0.0379 -2.5786 0.0000 0.0000 0.0000 -29.4437 -3.2929 -8.5620 1.8027 8.4425 24.0664 0.3064 -2.6701 -9.8755 0.0461 1.3864 3.8127 0.0000 0.0000 0.0000 13.4937 3.2399 -23.5222 -14.6012 -19.2863 74.0324 0.0157 -4.6009 2.6125 -0.0022 -0.3036 0.8341 -4.7312 -0.1492 6.8979 0.9328 -0.5193 1.1532 3.6739 -0.2150 -2.6246 -9.8879 -2.8712 -15.0649 4.0136 -2.4778 23.0803 2.7489 -1.5537 10.0231 0.0000 0.0000 0.0000 -90.3228 -2.2693 21.1733 12.6223 -20.7313 -2.3179 -0.0000 -0.0000 14.0029 13.7829 28.6133 6.7002 -7.1250 0.0000 -0.0000 -18.9706 58.2815 -6.3102 0.0000 0.0000 0.0000 88.4554 1.1683 8.7281 -14.4198 23.3316 -2.9923 0.0000 0.0000 13.1802 -17.6529 9.3770 -2.9681 7.1250 -0.0000 -0.0000 6.6484 -20.1801 3.9733
0.00 0.00 0.00 5.3823 1.7723 -2.1595 0.0000 0.0000 0.0000 -30.7085 -1.9574 -5.2902 2.2737 9.4142 27.0998 0.7244 -4.2220 -15.2073 0.0199 0.9118 2.5060 0.0000 0.0000 0.0000 12.4580 5.0405 -29.6759 -9.6051 -17.1817 58.1603 0.0985 -8.2261 -9.4587 -0.0000 -0.0445 0.1222 -5.8244 -0.9003 6.3694 1.0961 -1.5655 1.0323 4.5396 -0.7337 -2.3164 -9.9311 -2.8157 -14.9567 3.9699 -2.3960 23.4590 2.7572 -1.5343 10.1329 0.0000 -0.0000 0.0000 -88.7179 -6.0024 23.0880 14.8740 -23.9702 -3.1746 -0.0000 -0.0000 8.6843 15.6332 30.6627 8.1218 -7.1250 0.0000 -0.0000 -18.4936 60.6423 -7.1948 0.0000 -0.0000 0.0000 89.5013 -2.4516 5.8036 -13.9020 22.5945 -2.7904 0.0000 0.0000 11.2529 -17.0145 12.0933 -3.6682 7.1250 -0.0000 -0.0000 7.0964 -17.4095 4.6843
0.00 0.00 0.00 5.7405 2.2463 -1.0863 0.0000 0.0000 0.0000 -30.9774 -0.7854 -3.3902 2.0176 8.9026 25.4911 0.8065 -4.7294 -16.0349 0.0384 1.2644 3.4765 0.0000 0.0000 0.0000 12.1927 6.4740 -29.4083 -5.5152 -13.9415 43.0035 0.2579 -10.8014 -10.3966 -0.0122 -0.7139 1.9620 -6.2548 -1.0286 5.7692 1.0680 -1.7367 0.6711 4.7552 -0.8065 -2.3230 -9.7040 -2.9353 -15.1905 3.8049 -2.5554 23.4115 2.6370 -1.6034 10.1674 -0.0000 0.0000 0.0000 -88.0468 -7.4518 24.3589 15.7011 -25.1137 -3.5181 -0.0000 -0.0000 6.4348 17.5265 27.7772 8.3725 -7.1250 0.0000 -0.0000 -14.5075 58.3024 -4.7858 -0.0000 0.0000 0.0000 89.9061 -3.4009 4.1140 -13.1630 21.5255 -2.5128 0.0000 0.0000 13.8198 -16.9791 14.4759 -4.3646 7.1250 -0.0000 -0.0000 7.1495 -14.9547 5.1029
